<svg version="1.1" xmlns="http://www.w3.org/2000/svg" xmlns:xlink="http://www.w3.org/1999/xlink" width="94.45834" height="94.45834" viewBox="0,0,94.45834,94.45834"><g transform="translate(-192.77088,-132.77086)"><g data-paper-data="{&quot;isPaintingLayer&quot;:true}" fill-rule="nonzero" stroke-linejoin="miter" stroke-miterlimit="10" stroke-dasharray="" stroke-dashoffset="0" style="mix-blend-mode: normal"><g stroke-linecap="butt"><path d="M196.52089,180.00003c0,-24.01288 19.4663,-43.47917 43.47918,-43.47917c24.01288,0 43.47916,19.4663 43.47916,43.47918c0,24.01288 -19.46627,43.47916 -43.47916,43.47916c-24.01288,0 -43.47917,-19.46628 -43.47917,-43.47916z" fill="#ff0000" stroke="#000000" stroke-width="7.5"/><path d="M268.67812,201.06273c-6.17804,10.45832 -23.46724,19.7225 -39.17643,13.48205c-15.70919,-6.24046 -29.79755,-24.29068 -25.21159,-42.45574c4.1244,-16.33682 23.81447,-11.68084 45.52366,-1.99594c15.43683,6.88667 28.1994,15.16706 18.86436,30.96962z" fill="#de0000" stroke="none" stroke-width="NaN"/><path d="M264.16434,155.42133c-0.77414,2.39793 -8.64009,0.59068 -12.94324,-0.79853c-4.30314,-1.38921 -7.16398,-4.4593 -6.38984,-6.85723c0.77414,-2.39793 4.95041,-3.39024 9.19324,-1.82647c8.17814,3.0142 10.91398,7.08429 10.13984,9.48222z" fill="#ff4040" stroke="none" stroke-width="0"/><path d="M265.58745,168.73538c-3.12122,-3.27184 -4.49024,-7.40701 -2.6002,-9.07349c2.82324,-2.4893 5.09273,-2.37166 8.95274,2.77491c5.75367,6.54697 3.59448,11.42891 1.77124,13.16822c-1.82324,1.73931 -5.00256,-3.5978 -8.12378,-6.86964z" fill="#ff4040" stroke="none" stroke-width="0"/><path d="M236.02825,149.52743c-3.07208,0 -10.8125,-0.14727 -6.8125,-3.0625c1.14371,-0.83354 1.61542,-1.6875 6.8125,-2.0625c3.06412,-0.22109 5.8125,-0.10273 5.5625,2.5625c-0.13217,1.40904 -2.49042,2.5625 -5.5625,2.5625z" fill="#ff4040" stroke="none" stroke-width="0"/></g><g stroke-linecap="round"><g><g><path d="M235.74337,205.65765c0,0 -2.63153,1.75831 -4.23395,2.05179c-1.5949,0.29211 -5.35809,-0.29496 -5.35809,-0.29496l-2.44405,-6.6095l-6.05328,-4.4467l-3.59634,-6.75858l2.96741,-1.05411l-1.22848,-2.45364l3.3494,-0.85256l-0.80386,-1.85131l3.25197,-0.79169l0.82822,2.48466l3.19107,-0.79167l1.26668,3.00838l0.77283,2.07923l2.00441,1.91627l0.94189,-4.01812l-0.2749,-1.95222l2.38605,-1.71212l1.65875,5.33818l-0.33174,3.72465l-1.58283,5.1103z" fill="#000000" stroke="#000000" stroke-width="0.5"/><path d="M214.86548,185.53545l3.68491,7.29304" fill="none" stroke="#de0000" stroke-width="1"/><path d="M217.0918,182.23439l4.22227,8.67487" fill="none" stroke="#de0000" stroke-width="1"/><path d="M221.69791,181.38993l2.91723,7.21626" fill="none" stroke="#de0000" stroke-width="1"/><path d="M229.52833,184.30714l0.30708,3.53137l-2.26894,8.54692" fill="none" stroke="#de0000" stroke-width="1"/></g><path d="M225.68239,191.1699l-4.50377,6.00502" fill="none" stroke="#de0000" stroke-width="1"/></g><g data-paper-data="{&quot;index&quot;:null}"><g><path d="M247.40666,197.97156l-1.58283,-5.1103l-0.33174,-3.72465l1.65875,-5.33818l2.38605,1.71212l-0.2749,1.95223l0.94189,4.01812l2.00441,-1.91627l0.77283,-2.07923l1.26669,-3.00838l3.19107,0.79168l0.82822,-2.48466l3.25198,0.79168l-0.80386,1.85131l3.3494,0.85256l-1.22848,2.45365l2.96741,1.05411l-3.59634,6.75859l-6.05328,4.4467l-2.44406,6.60949c0,0 -3.76319,0.58708 -5.35809,0.29497c-1.60242,-0.29349 -4.23394,-2.05179 -4.23394,-2.05179z" fill="#ffffff" stroke="#ffffff" stroke-width="0.5"/><path d="M261.31077,193.01614l3.68491,-7.29304" fill="none" stroke="#de0000" stroke-width="1"/><path d="M258.54713,191.09691l4.22227,-8.67486" fill="none" stroke="#de0000" stroke-width="1"/><path d="M258.16328,181.57759l-2.91723,7.21627" fill="none" stroke="#de0000" stroke-width="1"/><path d="M252.29474,196.57309l-2.26895,-8.54692l0.30708,-3.53137" fill="none" stroke="#de0000" stroke-width="1"/></g><path d="M258.68258,197.36258l-4.50377,-6.00502" fill="none" stroke="#de0000" stroke-width="1"/></g></g><g fill="#f5f5f5" stroke="#e6e6e6" stroke-width="1" stroke-linecap="round"><path d="M226.35551,169.37679c0,0 0.23018,3.15942 1.50848,4.52012c1.28831,2.00564 3.36448,1.56704 3.36448,1.56704l-0.51824,-21.9101l5.45039,-1.65256l0.19986,28.78564c0,0 -5.42302,0.29776 -9.82263,-2.46012c-4.13967,-2.76198 -4.62966,-8.85253 -4.62966,-8.85253z"/><path d="M249.8118,176.1382l3.41149,3.21396c0,0 4.16827,-4.266 4.26451,-10.97734c0.1822,-4.26439 -1.85293,-8.49101 -1.85293,-8.49101l-5.82307,1.80502l-6.19258,-10.6469l-4.45432,0.10864l0.32593,29.8765h3.91111l-0.10864,-22.70614l4.95564,8.17811l4.09161,-1.94533c0,0 0.93581,3.57837 0.71559,5.34589c-0.51678,4.1478 -3.24432,6.2386 -3.24432,6.2386z"/></g></g></g></svg>